<?xml version="1.0"?>
<svg xmlns="http://www.w3.org/2000/svg" height="512px" viewBox="-76 0 512 512" width="512px" class=""><g><path d="m150 256v-45h60c33.085938 0 60-26.914062 60-60s-26.914062-60-60-60h-75c-8.285156 0-15 6.714844-15 15v150c0 8.285156 6.714844 15 15 15s15-6.714844 15-15zm0-135h60c16.542969 0 30 13.457031 30 30s-13.457031 30-30 30h-60zm0 0" data-original="#000000" class="active-path" data-old_color="#4A54E9" fill="#4A55EB"/><path d="m312.085938 383.546875c-21.226563-9.144531-48.839844-15.894531-79.332032-19.511719l6.511719-13.027344c70.222656-24.546874 120.734375-91.203124 120.734375-170.007812 0-99.804688-80.746094-181-180-181s-180 81.195312-180 181c0 78.667969 50.382812 145.414062 120.734375 170.007812l6.511719 13.027344c-30.492188 3.617188-58.105469 10.367188-79.332032 19.511719-39.601562 17.0625-47.914062 37.941406-47.914062 52.453125 0 16.136719 10.078125 39.121094 58.097656 56.984375 32.960938 12.261719 76.253906 19.015625 121.902344 19.015625s88.941406-6.753906 121.902344-19.015625c48.019531-17.863281 58.097656-40.847656 58.097656-56.984375 0-14.511719-8.3125-35.390625-47.914062-52.453125zm-282.085938-202.546875c0-83.261719 67.289062-151 150-151s150 67.738281 150 151c0 66.269531-42.507812 123.886719-105.773438 143.378906-3.914062 1.207032-7.167968 3.960938-9 7.625l-35.226562 70.457032-35.226562-70.457032c-1.832032-3.664062-5.085938-6.421875-9-7.625-63.265626-19.492187-105.773438-77.109375-105.773438-143.378906zm261.441406 283.867188c-29.699218 11.046874-69.273437 17.132812-111.441406 17.132812s-81.746094-6.085938-111.441406-17.132812c-26.636719-9.90625-38.558594-21.636719-38.558594-28.867188 0-5.566406 7.800781-15.429688 29.785156-24.898438 21.074219-9.082031 49.839844-15.515624 81.800782-18.394531l25 50c2.539062 5.082031 7.730468 8.292969 13.414062 8.292969s10.875-3.210938 13.417969-8.292969l25-50c31.957031 2.878907 60.722656 9.3125 81.796875 18.394531 21.984375 9.46875 29.785156 19.332032 29.785156 24.898438 0 7.230469-11.921875 18.960938-38.558594 28.867188zm0 0" data-original="#000000" class="active-path" data-old_color="#4A54E9" fill="#4A55EB"/></g> </svg>
